<svg width="20" height="20" viewBox="0 0 20 20" xmlns="http://www.w3.org/2000/svg" svg-inline="" class="mhy-cmn-input__password mhy-cmn-input__btn" role="presentation" focusable="false" tabindex="-1"><path fill-rule="evenodd" clip-rule="evenodd" d="M4 5.25a.75.75 0 01.75.75c0 2.72 2.272 4.75 5.25 4.75S15.25 8.72 15.25 6a.75.75 0 011.5 0c0 1.205-.33 2.288-.9 3.2l1.6 1.2a.75.75 0 11-.9 1.2l-1.648-1.236a6.655 6.655 0 01-2.19 1.384l.959 1.917a.75.75 0 01-1.342.67l-1-2a.75.75 0 01-.065-.19 7.665 7.665 0 01-2.528 0 .753.753 0 01-.065.19l-1 2a.75.75 0 01-1.342-.67l.958-1.917a6.652 6.652 0 01-2.206-1.4l-1.897 1.275a.75.75 0 11-.836-1.246l1.787-1.2A5.984 5.984 0 013.25 6 .75.75 0 014 5.25z"></path></svg>