<svg width="20" height="20" viewBox="0 0 20 20" xmlns="http://www.w3.org/2000/svg" svg-inline="" class="mhy-cmn-input__password mhy-cmn-input__btn" role="presentation" focusable="false" tabindex="-1"><path fill-rule="evenodd" clip-rule="evenodd" d="M16.5 10c0 1.187-.594 2.269-1.73 3.103-1.153.846-2.83 1.397-4.77 1.397-1.94 0-3.617-.551-4.77-1.397C4.095 12.27 3.5 11.187 3.5 10c0-1.187.594-2.269 1.73-3.103C6.384 6.05 8.06 5.5 10 5.5c1.94 0 3.617.551 4.77 1.397C15.905 7.73 16.5 8.813 16.5 10zm1.5 0c0 3.5-3.582 6-8 6s-8-2.5-8-6 3.582-6 8-6 8 2.5 8 6zm-6.5 0a1.5 1.5 0 11-3 0 1.5 1.5 0 013 0zm1.5 0a3 3 0 11-6 0 3 3 0 016 0z"></path></svg>